<svg xmlns="http://www.w3.org/2000/svg" viewBox="0 0 900 700">
<defs>
  <filter id="blur"><feGaussianBlur stdDeviation="1.4"/></filter>
  <radialGradient id="corner-fade" cx="100%" cy="100%" r="110%">
    <stop offset="0%" stop-color="white" stop-opacity="1"/>
    <stop offset="55%" stop-color="white" stop-opacity="0.55"/>
    <stop offset="90%" stop-color="white" stop-opacity="0"/>
  </radialGradient>
  <mask id="fade-mask">
    <rect width="900" height="700" fill="url(#corner-fade)"/>
  </mask>
</defs>
<g filter="url(#blur)" mask="url(#fade-mask)" stroke="#5B6775" fill="#5B6775">
  <g stroke-width="1.1" stroke-opacity="0.65" fill="none">
    <line x1="588.5" y1="430.9" x2="622.1" y2="409.1"/>
    <line x1="588.5" y1="430.9" x2="637.8" y2="399.4"/>
    <line x1="588.5" y1="430.9" x2="463.3" y2="398.1"/>
    <line x1="588.5" y1="430.9" x2="574.8" y2="436.8"/>
    <line x1="13.5" y1="369.9" x2="171.6" y2="512.3"/>
    <line x1="13.5" y1="369.9" x2="25.6" y2="566.4"/>
    <line x1="13.5" y1="369.9" x2="231.0" y2="281.1"/>
    <line x1="171.2" y1="169.4" x2="296.1" y2="207.4"/>
    <line x1="171.2" y1="169.4" x2="231.0" y2="281.1"/>
    <line x1="171.2" y1="169.4" x2="410.1" y2="142.6"/>
    <line x1="596.2" y1="320.1" x2="543.2" y2="295.0"/>
    <line x1="596.2" y1="320.1" x2="637.8" y2="399.4"/>
    <line x1="596.2" y1="320.1" x2="601.1" y2="318.9"/>
    <line x1="897.9" y1="697.0" x2="820.2" y2="677.9"/>
    <line x1="897.9" y1="697.0" x2="891.3" y2="648.8"/>
    <line x1="637.0" y1="220.7" x2="610.3" y2="141.8"/>
    <line x1="637.0" y1="220.7" x2="524.8" y2="221.5"/>
    <line x1="637.0" y1="220.7" x2="653.9" y2="181.6"/>
    <line x1="637.0" y1="220.7" x2="660.9" y2="166.9"/>
    <line x1="360.4" y1="592.6" x2="252.2" y2="642.2"/>
    <line x1="360.4" y1="592.6" x2="287.0" y2="699.6"/>
    <line x1="360.4" y1="592.6" x2="396.5" y2="586.9"/>
    <line x1="360.4" y1="592.6" x2="319.8" y2="433.8"/>
    <line x1="360.4" y1="592.6" x2="429.8" y2="681.2"/>
    <line x1="862.2" y1="593.1" x2="894.0" y2="615.9"/>
    <line x1="862.2" y1="593.1" x2="822.8" y2="616.2"/>
    <line x1="862.2" y1="593.1" x2="891.3" y2="648.8"/>
    <line x1="882.3" y1="278.2" x2="883.8" y2="316.7"/>
    <line x1="882.3" y1="278.2" x2="872.5" y2="361.2"/>
    <line x1="882.3" y1="278.2" x2="812.4" y2="221.1"/>
    <line x1="566.5" y1="545.0" x2="553.0" y2="529.3"/>
    <line x1="566.5" y1="545.0" x2="556.1" y2="647.7"/>
    <line x1="682.2" y1="82.6" x2="648.3" y2="48.1"/>
    <line x1="682.2" y1="82.6" x2="712.4" y2="13.4"/>
    <line x1="682.2" y1="82.6" x2="709.1" y2="98.4"/>
    <line x1="171.6" y1="512.3" x2="252.2" y2="642.2"/>
    <line x1="171.6" y1="512.3" x2="25.6" y2="566.4"/>
    <line x1="296.1" y1="207.4" x2="231.0" y2="281.1"/>
    <line x1="296.1" y1="207.4" x2="410.1" y2="142.6"/>
    <line x1="779.9" y1="128.0" x2="709.1" y2="98.4"/>
    <line x1="779.9" y1="128.0" x2="854.2" y2="60.2"/>
    <line x1="779.9" y1="128.0" x2="812.4" y2="221.1"/>
    <line x1="779.9" y1="128.0" x2="798.8" y2="93.8"/>
    <line x1="817.6" y1="572.5" x2="810.8" y2="609.8"/>
    <line x1="817.6" y1="572.5" x2="822.8" y2="616.2"/>
    <line x1="817.6" y1="572.5" x2="839.3" y2="505.7"/>
    <line x1="817.6" y1="572.5" x2="806.9" y2="615.9"/>
    <line x1="543.2" y1="295.0" x2="536.8" y2="205.4"/>
    <line x1="543.2" y1="295.0" x2="524.8" y2="221.5"/>
    <line x1="543.2" y1="295.0" x2="601.1" y2="318.9"/>
    <line x1="34.8" y1="673.9" x2="28.3" y2="611.0"/>
    <line x1="34.8" y1="673.9" x2="25.6" y2="566.4"/>
    <line x1="34.8" y1="673.9" x2="40.6" y2="651.1"/>
    <line x1="536.8" y1="205.4" x2="524.8" y2="221.5"/>
    <line x1="536.8" y1="205.4" x2="410.1" y2="142.6"/>
    <line x1="648.3" y1="48.1" x2="712.4" y2="13.4"/>
    <line x1="648.3" y1="48.1" x2="701.4" y2="16.0"/>
    <line x1="252.2" y1="642.2" x2="287.0" y2="699.6"/>
    <line x1="252.2" y1="642.2" x2="396.5" y2="586.9"/>
    <line x1="801.8" y1="686.3" x2="760.7" y2="630.4"/>
    <line x1="801.8" y1="686.3" x2="765.7" y2="677.9"/>
    <line x1="801.8" y1="686.3" x2="820.2" y2="677.9"/>
    <line x1="622.1" y1="409.1" x2="637.8" y2="399.4"/>
    <line x1="622.1" y1="409.1" x2="574.8" y2="436.8"/>
    <line x1="630.9" y1="673.9" x2="640.1" y2="665.0"/>
    <line x1="630.9" y1="673.9" x2="620.4" y2="662.0"/>
    <line x1="630.9" y1="673.9" x2="556.1" y2="647.7"/>
    <line x1="810.8" y1="609.8" x2="822.8" y2="616.2"/>
    <line x1="810.8" y1="609.8" x2="806.9" y2="615.9"/>
    <line x1="711.5" y1="604.4" x2="712.7" y2="634.4"/>
    <line x1="711.5" y1="604.4" x2="760.7" y2="630.4"/>
    <line x1="711.5" y1="604.4" x2="700.2" y2="570.2"/>
    <line x1="711.5" y1="604.4" x2="690.5" y2="535.7"/>
    <line x1="894.0" y1="615.9" x2="822.8" y2="616.2"/>
    <line x1="894.0" y1="615.9" x2="891.3" y2="648.8"/>
    <line x1="396.5" y1="586.9" x2="429.8" y2="681.2"/>
    <line x1="610.3" y1="141.8" x2="653.9" y2="181.6"/>
    <line x1="610.3" y1="141.8" x2="617.1" y2="132.3"/>
    <line x1="610.3" y1="141.8" x2="660.9" y2="166.9"/>
    <line x1="815.1" y1="462.0" x2="839.3" y2="505.7"/>
    <line x1="815.1" y1="462.0" x2="850.2" y2="466.3"/>
    <line x1="822.8" y1="616.2" x2="820.2" y2="677.9"/>
    <line x1="822.8" y1="616.2" x2="806.9" y2="615.9"/>
    <line x1="524.8" y1="221.5" x2="410.1" y2="142.6"/>
    <line x1="640.1" y1="665.0" x2="717.1" y2="661.0"/>
    <line x1="640.1" y1="665.0" x2="620.4" y2="662.0"/>
    <line x1="640.1" y1="665.0" x2="556.1" y2="647.7"/>
    <line x1="883.8" y1="316.7" x2="872.5" y2="361.2"/>
    <line x1="883.8" y1="316.7" x2="812.4" y2="221.1"/>
    <line x1="28.3" y1="611.0" x2="25.6" y2="566.4"/>
    <line x1="28.3" y1="611.0" x2="40.6" y2="651.1"/>
    <line x1="712.4" y1="13.4" x2="701.4" y2="16.0"/>
    <line x1="553.0" y1="529.3" x2="574.8" y2="436.8"/>
    <line x1="712.7" y1="634.4" x2="717.1" y2="661.0"/>
    <line x1="712.7" y1="634.4" x2="760.7" y2="630.4"/>
    <line x1="712.7" y1="634.4" x2="690.5" y2="535.7"/>
    <line x1="839.3" y1="505.7" x2="850.2" y2="466.3"/>
    <line x1="717.1" y1="661.0" x2="760.7" y2="630.4"/>
    <line x1="717.1" y1="661.0" x2="765.7" y2="677.9"/>
    <line x1="25.6" y1="566.4" x2="40.6" y2="651.1"/>
    <line x1="620.4" y1="662.0" x2="556.1" y2="647.7"/>
    <line x1="854.2" y1="60.2" x2="798.8" y2="93.8"/>
    <line x1="760.7" y1="630.4" x2="765.7" y2="677.9"/>
    <line x1="760.7" y1="630.4" x2="806.9" y2="615.9"/>
    <line x1="765.7" y1="677.9" x2="820.2" y2="677.9"/>
    <line x1="452.9" y1="423.7" x2="319.8" y2="433.8"/>
    <line x1="452.9" y1="423.7" x2="463.3" y2="398.1"/>
    <line x1="452.9" y1="423.7" x2="574.8" y2="436.8"/>
    <line x1="872.5" y1="361.2" x2="850.2" y2="466.3"/>
    <line x1="556.1" y1="647.7" x2="429.8" y2="681.2"/>
    <line x1="319.8" y1="433.8" x2="463.3" y2="398.1"/>
    <line x1="319.8" y1="433.8" x2="231.0" y2="281.1"/>
    <line x1="653.9" y1="181.6" x2="617.1" y2="132.3"/>
    <line x1="653.9" y1="181.6" x2="660.9" y2="166.9"/>
    <line x1="617.1" y1="132.3" x2="660.9" y2="166.9"/>
    <line x1="463.3" y1="398.1" x2="574.8" y2="436.8"/>
    <line x1="700.2" y1="570.2" x2="690.5" y2="535.7"/>
  </g>
  <g fill-opacity="0.9" stroke="none">
    <circle cx="588.5" cy="430.9" r="3.66"/>
    <circle cx="13.5" cy="369.9" r="4.54"/>
    <circle cx="171.2" cy="169.4" r="3.68"/>
    <circle cx="596.2" cy="320.1" r="3.08"/>
    <circle cx="897.9" cy="697.0" r="4.50"/>
    <circle cx="637.0" cy="220.7" r="4.17"/>
    <circle cx="360.4" cy="592.6" r="5.00"/>
    <circle cx="862.2" cy="593.1" r="5.06"/>
    <circle cx="882.3" cy="278.2" r="4.99"/>
    <circle cx="566.5" cy="545.0" r="3.85"/>
    <circle cx="682.2" cy="82.6" r="4.73"/>
    <circle cx="171.6" cy="512.3" r="3.53"/>
    <circle cx="296.1" cy="207.4" r="3.56"/>
    <circle cx="779.9" cy="128.0" r="3.76"/>
    <circle cx="817.6" cy="572.5" r="5.04"/>
    <circle cx="543.2" cy="295.0" r="4.95"/>
    <circle cx="34.8" cy="673.9" r="3.40"/>
    <circle cx="536.8" cy="205.4" r="3.67"/>
    <circle cx="648.3" cy="48.1" r="3.68"/>
    <circle cx="252.2" cy="642.2" r="3.67"/>
    <circle cx="801.8" cy="686.3" r="3.75"/>
    <circle cx="622.1" cy="409.1" r="3.73"/>
    <circle cx="630.9" cy="673.9" r="3.27"/>
    <circle cx="287.0" cy="699.6" r="4.15"/>
    <circle cx="810.8" cy="609.8" r="4.71"/>
    <circle cx="711.5" cy="604.4" r="4.10"/>
    <circle cx="894.0" cy="615.9" r="4.81"/>
    <circle cx="396.5" cy="586.9" r="4.15"/>
    <circle cx="610.3" cy="141.8" r="3.22"/>
    <circle cx="815.1" cy="462.0" r="4.62"/>
    <circle cx="822.8" cy="616.2" r="4.91"/>
    <circle cx="524.8" cy="221.5" r="3.48"/>
    <circle cx="640.1" cy="665.0" r="2.85"/>
    <circle cx="883.8" cy="316.7" r="4.04"/>
    <circle cx="28.3" cy="611.0" r="4.11"/>
    <circle cx="637.8" cy="399.4" r="4.16"/>
    <circle cx="712.4" cy="13.4" r="5.12"/>
    <circle cx="553.0" cy="529.3" r="4.36"/>
    <circle cx="712.7" cy="634.4" r="4.73"/>
    <circle cx="839.3" cy="505.7" r="2.95"/>
    <circle cx="717.1" cy="661.0" r="4.11"/>
    <circle cx="25.6" cy="566.4" r="4.69"/>
    <circle cx="709.1" cy="98.4" r="3.00"/>
    <circle cx="620.4" cy="662.0" r="3.00"/>
    <circle cx="854.2" cy="60.2" r="4.57"/>
    <circle cx="760.7" cy="630.4" r="4.96"/>
    <circle cx="765.7" cy="677.9" r="3.00"/>
    <circle cx="452.9" cy="423.7" r="4.32"/>
    <circle cx="872.5" cy="361.2" r="3.15"/>
    <circle cx="556.1" cy="647.7" r="4.59"/>
    <circle cx="701.4" cy="16.0" r="4.36"/>
    <circle cx="319.8" cy="433.8" r="3.39"/>
    <circle cx="812.4" cy="221.1" r="3.33"/>
    <circle cx="798.8" cy="93.8" r="4.64"/>
    <circle cx="653.9" cy="181.6" r="4.05"/>
    <circle cx="820.2" cy="677.9" r="4.64"/>
    <circle cx="617.1" cy="132.3" r="3.75"/>
    <circle cx="463.3" cy="398.1" r="3.61"/>
    <circle cx="891.3" cy="648.8" r="5.12"/>
    <circle cx="700.2" cy="570.2" r="4.41"/>
    <circle cx="806.9" cy="615.9" r="3.98"/>
    <circle cx="690.5" cy="535.7" r="4.09"/>
    <circle cx="574.8" cy="436.8" r="4.53"/>
    <circle cx="850.2" cy="466.3" r="4.50"/>
    <circle cx="231.0" cy="281.1" r="5.00"/>
    <circle cx="40.6" cy="651.1" r="3.79"/>
    <circle cx="429.8" cy="681.2" r="4.78"/>
    <circle cx="410.1" cy="142.6" r="4.40"/>
    <circle cx="601.1" cy="318.9" r="4.85"/>
    <circle cx="660.9" cy="166.9" r="4.73"/>
  </g>
</g>
</svg>
