<svg xmlns="http://www.w3.org/2000/svg" viewBox="0 0 1600 1000" preserveAspectRatio="xMidYMid slice">
<defs>
  <filter id="blur" x="-5%" y="-5%" width="110%" height="110%">
    <feGaussianBlur stdDeviation="1.8" />
  </filter>
</defs>
<rect width="1600" height="1000" fill="#EEF1F4" />
<g filter="url(#blur)" stroke="#5B6775" fill="#5B6775">
  <g stroke-width="1.1" stroke-opacity="0.6" fill="none">
    <line x1="532.2" y1="178.8" x2="593.5" y2="153.0"/>
    <line x1="532.2" y1="178.8" x2="560.8" y2="283.6"/>
    <line x1="532.2" y1="178.8" x2="541.1" y2="245.2"/>
    <line x1="532.2" y1="178.8" x2="580.5" y2="66.7"/>
    <line x1="1029.4" y1="106.6" x2="872.6" y2="97.8"/>
    <line x1="1029.4" y1="106.6" x2="1067.8" y2="89.7"/>
    <line x1="1029.4" y1="106.6" x2="973.4" y2="176.7"/>
    <line x1="854.5" y1="376.4" x2="917.2" y2="404.9"/>
    <line x1="854.5" y1="376.4" x2="728.8" y2="315.8"/>
    <line x1="854.5" y1="376.4" x2="921.4" y2="459.7"/>
    <line x1="854.5" y1="376.4" x2="935.5" y2="281.7"/>
    <line x1="128.2" y1="506.8" x2="97.0" y2="439.0"/>
    <line x1="128.2" y1="506.8" x2="74.3" y2="464.8"/>
    <line x1="128.2" y1="506.8" x2="162.5" y2="453.3"/>
    <line x1="128.2" y1="506.8" x2="46.2" y2="425.4"/>
    <line x1="97.0" y1="439.0" x2="74.3" y2="464.8"/>
    <line x1="97.0" y1="439.0" x2="162.5" y2="453.3"/>
    <line x1="97.0" y1="439.0" x2="46.2" y2="425.4"/>
    <line x1="146.2" y1="123.5" x2="259.3" y2="148.4"/>
    <line x1="146.2" y1="123.5" x2="130.6" y2="229.5"/>
    <line x1="146.2" y1="123.5" x2="134.6" y2="102.0"/>
    <line x1="146.2" y1="123.5" x2="40.4" y2="179.2"/>
    <line x1="146.2" y1="123.5" x2="170.5" y2="134.0"/>
    <line x1="685.3" y1="800.7" x2="675.5" y2="736.6"/>
    <line x1="685.3" y1="800.7" x2="626.4" y2="655.2"/>
    <line x1="685.3" y1="800.7" x2="634.2" y2="841.7"/>
    <line x1="685.3" y1="800.7" x2="585.3" y2="853.5"/>
    <line x1="228.2" y1="245.4" x2="130.6" y2="229.5"/>
    <line x1="228.2" y1="245.4" x2="295.4" y2="147.7"/>
    <line x1="228.2" y1="245.4" x2="236.6" y2="267.8"/>
    <line x1="228.2" y1="245.4" x2="307.9" y2="253.4"/>
    <line x1="228.2" y1="245.4" x2="357.3" y2="189.3"/>
    <line x1="993.7" y1="911.9" x2="1023.6" y2="953.6"/>
    <line x1="993.7" y1="911.9" x2="875.1" y2="852.7"/>
    <line x1="993.7" y1="911.9" x2="842.7" y2="940.2"/>
    <line x1="917.2" y1="404.9" x2="1011.1" y2="382.6"/>
    <line x1="917.2" y1="404.9" x2="921.4" y2="459.7"/>
    <line x1="917.2" y1="404.9" x2="935.5" y2="281.7"/>
    <line x1="1523.9" y1="82.9" x2="1529.9" y2="148.6"/>
    <line x1="1523.9" y1="82.9" x2="1495.8" y2="178.8"/>
    <line x1="1523.9" y1="82.9" x2="1299.9" y2="188.5"/>
    <line x1="1344.9" y1="306.4" x2="1370.7" y2="328.6"/>
    <line x1="1344.9" y1="306.4" x2="1289.3" y2="301.8"/>
    <line x1="1344.9" y1="306.4" x2="1299.9" y2="188.5"/>
    <line x1="259.3" y1="148.4" x2="295.4" y2="147.7"/>
    <line x1="259.3" y1="148.4" x2="357.3" y2="189.3"/>
    <line x1="259.3" y1="148.4" x2="170.5" y2="134.0"/>
    <line x1="508.9" y1="790.8" x2="634.2" y2="841.7"/>
    <line x1="508.9" y1="790.8" x2="585.3" y2="853.5"/>
    <line x1="314.7" y1="575.1" x2="411.0" y2="568.5"/>
    <line x1="314.7" y1="575.1" x2="271.0" y2="489.8"/>
    <line x1="314.7" y1="575.1" x2="293.9" y2="750.2"/>
    <line x1="314.7" y1="575.1" x2="384.6" y2="516.2"/>
    <line x1="1011.1" y1="382.6" x2="1074.2" y2="433.4"/>
    <line x1="1011.1" y1="382.6" x2="1148.8" y2="304.9"/>
    <line x1="1011.1" y1="382.6" x2="921.4" y2="459.7"/>
    <line x1="1011.1" y1="382.6" x2="935.5" y2="281.7"/>
    <line x1="872.6" y1="97.8" x2="1067.8" y2="89.7"/>
    <line x1="872.6" y1="97.8" x2="973.4" y2="176.7"/>
    <line x1="872.6" y1="97.8" x2="843.0" y2="174.9"/>
    <line x1="872.6" y1="97.8" x2="865.6" y2="64.9"/>
    <line x1="130.6" y1="229.5" x2="236.6" y2="267.8"/>
    <line x1="130.6" y1="229.5" x2="134.6" y2="102.0"/>
    <line x1="130.6" y1="229.5" x2="40.4" y2="179.2"/>
    <line x1="1074.2" y1="433.4" x2="1148.8" y2="304.9"/>
    <line x1="1074.2" y1="433.4" x2="1202.1" y2="567.2"/>
    <line x1="1074.2" y1="433.4" x2="1096.8" y2="586.8"/>
    <line x1="1074.2" y1="433.4" x2="921.4" y2="459.7"/>
    <line x1="517.5" y1="578.7" x2="411.0" y2="568.5"/>
    <line x1="517.5" y1="578.7" x2="626.4" y2="655.2"/>
    <line x1="517.5" y1="578.7" x2="601.3" y2="561.0"/>
    <line x1="728.8" y1="315.8" x2="636.4" y2="407.1"/>
    <line x1="728.8" y1="315.8" x2="748.3" y2="485.1"/>
    <line x1="1247.5" y1="683.1" x2="1202.1" y2="567.2"/>
    <line x1="1247.5" y1="683.1" x2="1096.8" y2="586.8"/>
    <line x1="1247.5" y1="683.1" x2="1352.3" y2="680.5"/>
    <line x1="1247.5" y1="683.1" x2="1336.0" y2="781.6"/>
    <line x1="1247.5" y1="683.1" x2="1283.9" y2="720.7"/>
    <line x1="411.0" y1="568.5" x2="394.7" y2="486.2"/>
    <line x1="411.0" y1="568.5" x2="384.6" y2="516.2"/>
    <line x1="838.3" y1="845.1" x2="875.1" y2="852.7"/>
    <line x1="838.3" y1="845.1" x2="842.7" y2="940.2"/>
    <line x1="838.3" y1="845.1" x2="849.5" y2="756.7"/>
    <line x1="1148.8" y1="304.9" x2="1289.3" y2="301.8"/>
    <line x1="1529.9" y1="148.6" x2="1370.7" y2="328.6"/>
    <line x1="1529.9" y1="148.6" x2="1495.8" y2="178.8"/>
    <line x1="1529.9" y1="148.6" x2="1299.9" y2="188.5"/>
    <line x1="675.5" y1="736.6" x2="760.6" y2="651.0"/>
    <line x1="675.5" y1="736.6" x2="626.4" y2="655.2"/>
    <line x1="675.5" y1="736.6" x2="634.2" y2="841.7"/>
    <line x1="271.0" y1="489.8" x2="162.5" y2="453.3"/>
    <line x1="271.0" y1="489.8" x2="394.7" y2="486.2"/>
    <line x1="271.0" y1="489.8" x2="384.6" y2="516.2"/>
    <line x1="99.6" y1="654.8" x2="132.2" y2="685.4"/>
    <line x1="99.6" y1="654.8" x2="129.6" y2="746.8"/>
    <line x1="99.6" y1="654.8" x2="197.4" y2="623.5"/>
    <line x1="99.6" y1="654.8" x2="78.8" y2="844.4"/>
    <line x1="1202.1" y1="567.2" x2="1096.8" y2="586.8"/>
    <line x1="1202.1" y1="567.2" x2="1283.9" y2="720.7"/>
    <line x1="1370.7" y1="328.6" x2="1289.3" y2="301.8"/>
    <line x1="921.4" y1="459.7" x2="823.5" y2="608.2"/>
    <line x1="1316.8" y1="909.1" x2="1285.3" y2="834.9"/>
    <line x1="1316.8" y1="909.1" x2="1330.4" y2="953.7"/>
    <line x1="1316.8" y1="909.1" x2="1273.5" y2="946.1"/>
    <line x1="760.6" y1="651.0" x2="626.4" y2="655.2"/>
    <line x1="760.6" y1="651.0" x2="823.5" y2="608.2"/>
    <line x1="760.6" y1="651.0" x2="849.5" y2="756.7"/>
    <line x1="132.2" y1="685.4" x2="129.6" y2="746.8"/>
    <line x1="132.2" y1="685.4" x2="197.4" y2="623.5"/>
    <line x1="132.2" y1="685.4" x2="78.8" y2="844.4"/>
    <line x1="132.2" y1="685.4" x2="293.9" y2="750.2"/>
    <line x1="1023.6" y1="953.6" x2="875.1" y2="852.7"/>
    <line x1="1023.6" y1="953.6" x2="842.7" y2="940.2"/>
    <line x1="1289.3" y1="301.8" x2="1299.9" y2="188.5"/>
    <line x1="626.4" y1="655.2" x2="601.3" y2="561.0"/>
    <line x1="74.3" y1="464.8" x2="162.5" y2="453.3"/>
    <line x1="74.3" y1="464.8" x2="46.2" y2="425.4"/>
    <line x1="295.4" y1="147.7" x2="307.9" y2="253.4"/>
    <line x1="295.4" y1="147.7" x2="357.3" y2="189.3"/>
    <line x1="129.6" y1="746.8" x2="78.8" y2="844.4"/>
    <line x1="129.6" y1="746.8" x2="75.1" y2="914.9"/>
    <line x1="129.6" y1="746.8" x2="293.9" y2="750.2"/>
    <line x1="236.6" y1="267.8" x2="307.9" y2="253.4"/>
    <line x1="236.6" y1="267.8" x2="194.2" y2="374.5"/>
    <line x1="634.2" y1="841.7" x2="585.3" y2="853.5"/>
    <line x1="162.5" y1="453.3" x2="194.2" y2="374.5"/>
    <line x1="875.1" y1="852.7" x2="842.7" y2="940.2"/>
    <line x1="875.1" y1="852.7" x2="849.5" y2="756.7"/>
    <line x1="1285.3" y1="834.9" x2="1369.3" y2="774.0"/>
    <line x1="1285.3" y1="834.9" x2="1330.4" y2="953.7"/>
    <line x1="1285.3" y1="834.9" x2="1273.5" y2="946.1"/>
    <line x1="1285.3" y1="834.9" x2="1336.0" y2="781.6"/>
    <line x1="463.2" y1="422.1" x2="423.4" y2="359.6"/>
    <line x1="463.2" y1="422.1" x2="436.9" y2="377.4"/>
    <line x1="307.9" y1="253.4" x2="357.3" y2="189.3"/>
    <line x1="394.7" y1="486.2" x2="384.6" y2="516.2"/>
    <line x1="935.5" y1="281.7" x2="973.4" y2="176.7"/>
    <line x1="601.3" y1="561.0" x2="636.4" y2="407.1"/>
    <line x1="601.3" y1="561.0" x2="748.3" y2="485.1"/>
    <line x1="1488.7" y1="675.3" x2="1407.3" y2="757.6"/>
    <line x1="1488.7" y1="675.3" x2="1352.3" y2="680.5"/>
    <line x1="823.5" y1="608.2" x2="748.3" y2="485.1"/>
    <line x1="823.5" y1="608.2" x2="849.5" y2="756.7"/>
    <line x1="1067.8" y1="89.7" x2="973.4" y2="176.7"/>
    <line x1="1067.8" y1="89.7" x2="865.6" y2="64.9"/>
    <line x1="1407.3" y1="757.6" x2="1369.3" y2="774.0"/>
    <line x1="1407.3" y1="757.6" x2="1352.3" y2="680.5"/>
    <line x1="1407.3" y1="757.6" x2="1336.0" y2="781.6"/>
    <line x1="1369.3" y1="774.0" x2="1352.3" y2="680.5"/>
    <line x1="1369.3" y1="774.0" x2="1336.0" y2="781.6"/>
    <line x1="1369.3" y1="774.0" x2="1283.9" y2="720.7"/>
    <line x1="636.4" y1="407.1" x2="748.3" y2="485.1"/>
    <line x1="636.4" y1="407.1" x2="560.8" y2="283.6"/>
    <line x1="197.4" y1="623.5" x2="293.9" y2="750.2"/>
    <line x1="134.6" y1="102.0" x2="40.4" y2="179.2"/>
    <line x1="134.6" y1="102.0" x2="170.5" y2="134.0"/>
    <line x1="556.9" y1="88.4" x2="593.5" y2="153.0"/>
    <line x1="556.9" y1="88.4" x2="580.5" y2="66.7"/>
    <line x1="78.8" y1="844.4" x2="75.1" y2="914.9"/>
    <line x1="973.4" y1="176.7" x2="843.0" y2="174.9"/>
    <line x1="423.4" y1="359.6" x2="436.9" y2="377.4"/>
    <line x1="593.5" y1="153.0" x2="541.1" y2="245.2"/>
    <line x1="593.5" y1="153.0" x2="580.5" y2="66.7"/>
    <line x1="1330.4" y1="953.7" x2="1273.5" y2="946.1"/>
    <line x1="1330.4" y1="953.7" x2="1336.0" y2="781.6"/>
    <line x1="560.8" y1="283.6" x2="541.1" y2="245.2"/>
    <line x1="843.0" y1="174.9" x2="865.6" y2="64.9"/>
    <line x1="1352.3" y1="680.5" x2="1336.0" y2="781.6"/>
    <line x1="1352.3" y1="680.5" x2="1283.9" y2="720.7"/>
    <line x1="541.1" y1="245.2" x2="580.5" y2="66.7"/>
    <line x1="1273.5" y1="946.1" x2="1336.0" y2="781.6"/>
  </g>
  <g fill-opacity="0.85" stroke="none">
    <circle cx="532.2" cy="178.8" r="3.65"/>
    <circle cx="1029.4" cy="106.6" r="3.90"/>
    <circle cx="854.5" cy="376.4" r="4.20"/>
    <circle cx="128.2" cy="506.8" r="4.97"/>
    <circle cx="97.0" cy="439.0" r="3.81"/>
    <circle cx="146.2" cy="123.5" r="5.00"/>
    <circle cx="685.3" cy="800.7" r="4.00"/>
    <circle cx="228.2" cy="245.4" r="4.08"/>
    <circle cx="993.7" cy="911.9" r="4.06"/>
    <circle cx="917.2" cy="404.9" r="2.84"/>
    <circle cx="1523.9" cy="82.9" r="3.86"/>
    <circle cx="1344.9" cy="306.4" r="3.24"/>
    <circle cx="259.3" cy="148.4" r="2.81"/>
    <circle cx="508.9" cy="790.8" r="4.72"/>
    <circle cx="314.7" cy="575.1" r="3.21"/>
    <circle cx="1011.1" cy="382.6" r="3.94"/>
    <circle cx="872.6" cy="97.8" r="4.54"/>
    <circle cx="130.6" cy="229.5" r="4.14"/>
    <circle cx="1074.2" cy="433.4" r="3.58"/>
    <circle cx="517.5" cy="578.7" r="4.04"/>
    <circle cx="728.8" cy="315.8" r="4.13"/>
    <circle cx="1247.5" cy="683.1" r="4.68"/>
    <circle cx="411.0" cy="568.5" r="3.05"/>
    <circle cx="838.3" cy="845.1" r="4.14"/>
    <circle cx="1148.8" cy="304.9" r="3.40"/>
    <circle cx="1529.9" cy="148.6" r="3.46"/>
    <circle cx="675.5" cy="736.6" r="4.65"/>
    <circle cx="271.0" cy="489.8" r="4.02"/>
    <circle cx="99.6" cy="654.8" r="4.15"/>
    <circle cx="1202.1" cy="567.2" r="4.62"/>
    <circle cx="1370.7" cy="328.6" r="4.99"/>
    <circle cx="1096.8" cy="586.8" r="3.86"/>
    <circle cx="921.4" cy="459.7" r="4.27"/>
    <circle cx="1316.8" cy="909.1" r="4.01"/>
    <circle cx="760.6" cy="651.0" r="4.03"/>
    <circle cx="132.2" cy="685.4" r="4.46"/>
    <circle cx="1023.6" cy="953.6" r="3.89"/>
    <circle cx="1289.3" cy="301.8" r="4.08"/>
    <circle cx="626.4" cy="655.2" r="3.95"/>
    <circle cx="74.3" cy="464.8" r="5.06"/>
    <circle cx="295.4" cy="147.7" r="4.48"/>
    <circle cx="129.6" cy="746.8" r="4.90"/>
    <circle cx="236.6" cy="267.8" r="5.06"/>
    <circle cx="634.2" cy="841.7" r="3.42"/>
    <circle cx="162.5" cy="453.3" r="4.14"/>
    <circle cx="875.1" cy="852.7" r="5.06"/>
    <circle cx="1285.3" cy="834.9" r="4.82"/>
    <circle cx="463.2" cy="422.1" r="3.13"/>
    <circle cx="585.3" cy="853.5" r="3.09"/>
    <circle cx="1495.8" cy="178.8" r="3.86"/>
    <circle cx="307.9" cy="253.4" r="2.97"/>
    <circle cx="394.7" cy="486.2" r="3.38"/>
    <circle cx="935.5" cy="281.7" r="2.98"/>
    <circle cx="46.2" cy="425.4" r="4.41"/>
    <circle cx="601.3" cy="561.0" r="4.68"/>
    <circle cx="1488.7" cy="675.3" r="4.95"/>
    <circle cx="823.5" cy="608.2" r="3.17"/>
    <circle cx="1067.8" cy="89.7" r="4.52"/>
    <circle cx="1407.3" cy="757.6" r="4.38"/>
    <circle cx="1369.3" cy="774.0" r="3.14"/>
    <circle cx="636.4" cy="407.1" r="4.92"/>
    <circle cx="197.4" cy="623.5" r="5.12"/>
    <circle cx="134.6" cy="102.0" r="3.33"/>
    <circle cx="357.3" cy="189.3" r="5.09"/>
    <circle cx="556.9" cy="88.4" r="3.76"/>
    <circle cx="40.4" cy="179.2" r="3.97"/>
    <circle cx="194.2" cy="374.5" r="5.18"/>
    <circle cx="78.8" cy="844.4" r="4.80"/>
    <circle cx="973.4" cy="176.7" r="3.19"/>
    <circle cx="423.4" cy="359.6" r="3.84"/>
    <circle cx="593.5" cy="153.0" r="4.04"/>
    <circle cx="1330.4" cy="953.7" r="3.61"/>
    <circle cx="748.3" cy="485.1" r="3.27"/>
    <circle cx="170.5" cy="134.0" r="3.56"/>
    <circle cx="560.8" cy="283.6" r="4.53"/>
    <circle cx="1299.9" cy="188.5" r="2.85"/>
    <circle cx="75.1" cy="914.9" r="4.13"/>
    <circle cx="843.0" cy="174.9" r="3.86"/>
    <circle cx="865.6" cy="64.9" r="2.84"/>
    <circle cx="842.7" cy="940.2" r="3.60"/>
    <circle cx="1352.3" cy="680.5" r="4.30"/>
    <circle cx="436.9" cy="377.4" r="4.03"/>
    <circle cx="293.9" cy="750.2" r="2.95"/>
    <circle cx="849.5" cy="756.7" r="5.16"/>
    <circle cx="541.1" cy="245.2" r="4.69"/>
    <circle cx="1273.5" cy="946.1" r="5.13"/>
    <circle cx="1336.0" cy="781.6" r="3.05"/>
    <circle cx="1283.9" cy="720.7" r="3.44"/>
    <circle cx="384.6" cy="516.2" r="2.90"/>
    <circle cx="580.5" cy="66.7" r="4.67"/>
  </g>
</g>
</svg>
