<?xml version="1.0" encoding="UTF-8"?>
<svg id="Calque_1" xmlns="http://www.w3.org/2000/svg" version="1.1" viewBox="0 0 857.44 470.28">
  <!-- Generator: Adobe Illustrator 30.1.0, SVG Export Plug-In . SVG Version: 2.1.1 Build 136)  -->
  <g>
    <path d="M432.46,172.63v-31.51h-12.37v-9.18h36.62v9.18h-12.43v31.51h-11.82Z" fill="#fff"/>
    <path d="M461.07,172.63v-40.69h11.88v14.96h14.9v-14.96h11.88v40.69h-11.88v-16.55h-14.9v16.55h-11.88Z" fill="#fff"/>
    <path d="M506.88,172.63v-40.69h31.51v9.18h-19.63v6.32h17.76v9.18h-17.76v6.82h19.8v9.18h-31.68Z" fill="#fff"/>
    <path d="M434.17,227.63l-14.57-40.69h12.43l10.12,30.03,10.17-30.03h12.32l-14.57,40.69h-15.9Z" fill="#fff"/>
    <path d="M468.55,227.63v-40.69h31.51v9.18h-19.63v6.32h17.76v9.18h-17.76v6.82h19.8v9.18h-31.68Z" fill="#fff"/>
    <path d="M533.94,186.94h11.77v40.69h-11.71l-16-23.37v23.37h-11.88v-40.69h11.82l16,23.43v-23.43Z" fill="#fff"/>
    <path d="M562.54,227.63v-31.51h-12.37v-9.18h36.62v9.18h-12.43v31.51h-11.82Z" fill="#fff"/>
    <path d="M590.87,209.43v-22.49h11.88v22.44c0,6.71,2.53,10.34,7.15,10.34s7.2-3.63,7.2-10.34v-22.44h11.88v22.49c0,12.15-7.04,19.03-19.08,18.92-12.04-.11-19.03-7.04-19.03-18.92Z" fill="#fff"/>
    <path d="M635.85,227.63v-40.69h19.36c9.84,0,15.67,5.11,15.67,13.03,0,4.62-2.03,8.25-5.66,10.5,7.64,3.63,4.01,13.53,7.59,16.88v.28h-11.71c-5-5.33.77-14.63-8.69-14.63h-4.67v14.63h-11.89ZM647.73,203.82h7.31c2.31,0,3.79-1.49,3.79-3.85s-1.59-3.85-4.07-3.85h-7.04v7.7h.01Z" fill="#fff"/>
    <path d="M677.32,227.63v-40.69h31.51v9.18h-19.63v6.32h17.76v9.18h-17.76v6.82h19.8v9.18h-31.68Z" fill="#fff"/>
    <path d="M421.58,269.38h12.15c.11,4.12,2.97,5.99,7.15,5.99,2.8,0,4.62-1.65,4.62-3.63,0-3.46-4.12-4.12-8.85-5.28-6.32-1.54-13.8-3.9-13.8-13.69,0-7.09,6.65-11.71,16.77-11.71s16.5,5.06,16.72,12.87h-11.82c-.22-3.35-2.14-4.73-5.06-4.73s-4.62,1.38-4.56,3.46c.05,2.97,3.02,3.9,6.76,4.84,6.71,1.59,15.89,3.08,15.89,13.09,0,7.81-6.65,12.92-16.83,12.92-11.55,0-19.14-5.61-19.14-14.13h0Z" fill="#fff"/>
    <path d="M461.12,262.06c0-12.65,8.69-21.01,21.78-21.01,10.34,0,18.04,5.99,19.41,15.56h-11.99c-.44-4.56-3.46-6.87-7.53-6.93-5.77-.05-9.62,4.56-9.62,12.1,0,8.08,3.79,13.09,9.46,13.09,4.23,0,7.37-2.69,7.92-7.7h11.99c-1.43,10.06-9.18,16.33-19.52,16.33-13.14,0-21.89-8.52-21.89-21.45h-.01Z" fill="#fff"/>
    <path d="M507.65,282.63v-40.69h11.88v40.69h-11.88,0Z" fill="#fff"/>
    <path d="M526.68,282.63v-40.69h31.51v9.18h-19.63v6.32h17.76v9.18h-17.76v6.82h19.8v9.18h-31.68Z" fill="#fff"/>
    <path d="M592.07,241.94h11.77v40.69h-11.71l-16-23.37v23.37h-11.88v-40.69h11.82l16,23.43v-23.43Z" fill="#fff"/>
    <path d="M620.67,282.63v-31.51h-12.37v-9.18h36.62v9.18h-12.43v31.51h-11.82Z" fill="#fff"/>
    <path d="M649.27,282.63v-40.69h11.88v40.69h-11.88Z" fill="#fff"/>
    <path d="M666.49,269.38h12.15c.11,4.12,2.97,5.99,7.15,5.99,2.8,0,4.62-1.65,4.62-3.63,0-3.46-4.12-4.12-8.85-5.28-6.32-1.54-13.8-3.9-13.8-13.69,0-7.09,6.65-11.71,16.77-11.71s16.5,5.06,16.72,12.87h-11.82c-.22-3.35-2.14-4.73-5.06-4.73s-4.62,1.38-4.56,3.46c.05,2.97,3.02,3.9,6.76,4.84,6.71,1.59,15.89,3.08,15.89,13.09,0,7.81-6.65,12.92-16.83,12.92-11.55,0-19.14-5.61-19.14-14.13h0Z" fill="#fff"/>
    <path d="M715.71,282.63v-31.51h-12.37v-9.18h36.62v9.18h-12.43v31.51h-11.82Z" fill="#fff"/>
    <path d="M422.84,337.63v-40.69h31.46v9.18h-19.58v6.49h17.71v9.24h-17.71v15.78h-11.88Z" fill="#fff"/>
    <path d="M459.33,319.43v-22.49h11.88v22.44c0,6.71,2.53,10.34,7.15,10.34s7.2-3.63,7.2-10.34v-22.44h11.88v22.49c0,12.15-7.04,19.03-19.08,18.92-12.04-.11-19.03-7.04-19.03-18.92h0Z" fill="#fff"/>
    <path d="M532.15,296.94h11.77v40.69h-11.71l-16-23.37v23.37h-11.88v-40.69h11.82l16,23.43v-23.43Z" fill="#fff"/>
    <path d="M551.13,337.63v-40.69h16.39c13.91,0,22.99,8.03,22.99,20.29s-9.07,20.4-22.99,20.4h-16.39ZM563.01,328.45h4.51c6.65,0,10.94-4.51,10.94-11.27s-4.29-11.05-10.94-11.05h-4.51v22.33h0Z" fill="#fff"/>
  </g>
  <path d="M360.87,235.62h0c-2.06-64.95-54.29-120.17-120.65-120.18-66.36,0-118.59,55.23-120.65,120.18h0v.02h0c2.06,64.95,54.29,120.17,120.65,120.18,66.36,0,118.59-55.23,120.65-120.18h0v-.02ZM205.28,132.07c-7.41,7.77-12.18,13.13-17.36,21.62-7.47,12.25-12.67,27.87-15.49,42.04-.53,2.69-1.15,5.36-1.92,7.98-2.41,8.05-7.15,14-14.68,17.34-7.71,3.43-16.45,5.41-24.78,6.43.16-39.74,44.38-87.01,74.24-95.41h0ZM131.04,243.78c8.32,1.02,17.07,3.01,24.78,6.43,7.54,3.34,12.27,9.29,14.68,17.34.77,2.61,1.39,5.29,1.92,7.98,2.81,14.17,8.01,29.79,15.49,42.04,5.19,8.5,9.96,13.85,17.36,21.62-29.86-8.4-74.08-55.67-74.24-95.41h0ZM219.43,339.19c-31.34-23.27-35.59-60.22-37.94-80.94-1.38-12.16-1.52-12.46-13.45-14-10.64-1.38-21.27-2.38-31.95-3.45-1.69-.17-3.22-.34-4.91-.46h-.05c-.05-.49-.08-.95-.03-1.71,1.32-.04,9.92.13,13.14.21,16.81.41,33.59,1.72,50,6.02,18.26,4.78,30.7,16.24,35.8,35.42,2.22,8.38,3.78,17.04,4.79,25.68,1.38,11.77,2.21,28.11,2.97,39.94-.41.07-11.26-1.42-18.36-6.7h0ZM234.82,165.31c-1.02,8.64-2.57,17.29-4.79,25.68-5.1,19.17-17.54,30.64-35.8,35.42-16.41,4.3-33.18,5.61-50,6.02-3.22.08-11.82.26-13.14.21-.05-.76-.02-1.22.03-1.7h.05c1.69-.13,3.22-.31,4.91-.47,10.68-1.07,21.31-2.07,31.95-3.45,11.93-1.55,12.07-1.85,13.45-14,2.35-20.72,6.6-57.67,37.94-80.94,7.11-5.28,17.96-6.77,18.36-6.7-.76,11.83-1.59,28.17-2.97,39.94h0ZM261.01,132.07c31.34,23.27,35.59,60.22,37.94,80.94,1.38,12.16,1.52,12.46,13.45,14,10.64,1.38,21.27,2.38,31.95,3.45,1.69.17,3.22.34,4.91.46h.05c.05.49.08.95.03,1.71-1.32.04-9.92-.13-13.14-.21-16.81-.41-33.59-1.72-50-6.02-18.26-4.78-30.7-16.24-35.8-35.42-2.22-8.38-3.78-17.04-4.79-25.68-1.38-11.77-2.21-28.11-2.97-39.94.41-.07,11.26,1.42,18.36,6.7h.01ZM261.01,339.19c-7.11,5.28-17.96,6.77-18.36,6.7.76-11.83,1.59-28.17,2.97-39.94,1.02-8.64,2.57-17.29,4.79-25.68,5.1-19.17,17.54-30.64,35.8-35.42,16.41-4.3,33.18-5.61,50-6.02,3.22-.08,11.82-.26,13.14-.21.05.76.02,1.22-.03,1.7h-.05c-1.69.13-3.22.31-4.91.47-10.68,1.07-21.31,2.07-31.95,3.45-11.93,1.55-12.07,1.85-13.45,14-2.35,20.72-6.6,57.67-37.94,80.94h0ZM275.15,339.19c7.41-7.77,12.18-13.13,17.36-21.62,7.47-12.25,12.67-27.87,15.49-42.04.53-2.69,1.15-5.36,1.92-7.98,2.41-8.05,7.15-14,14.68-17.34,7.71-3.43,16.45-5.41,24.78-6.43-.16,39.74-44.38,87.01-74.24,95.41h0ZM324.61,221.05c-7.54-3.34-12.27-9.29-14.68-17.34-.77-2.61-1.39-5.29-1.92-7.98-2.81-14.17-8.01-29.79-15.49-42.04-5.19-8.5-9.96-13.85-17.36-21.62,29.86,8.4,74.08,55.67,74.24,95.41-8.32-1.02-17.07-3.01-24.78-6.43h0Z" fill="#fff"/>
</svg>