<?xml version="1.0" encoding="UTF-8"?>
<svg id="Calque_1" xmlns="http://www.w3.org/2000/svg" version="1.1" viewBox="0 0 709.68 563.15">
  <!-- Generator: Adobe Illustrator 30.1.0, SVG Export Plug-In . SVG Version: 2.1.1 Build 136)  -->
  <g>
    <path d="M154.56,407.56c0,3.5-2.86,5.54-7.77,5.54h-9.65v-19.61h9.44c4.29,0,6.81,1.75,6.81,4.74,0,2.07-.95,3.58-2.68,4.32,2.46.74,3.84,2.49,3.84,5.01h0ZM142.87,397.91v3.13h3.18c1.14,0,1.83-.58,1.83-1.59,0-.95-.69-1.54-1.86-1.54h-3.15ZM146.13,408.67c1.67,0,2.62-.74,2.62-1.96s-.98-1.96-2.68-1.96h-3.21v3.92h3.27Z"/>
    <path d="M171.94,413.09l-1.43-4.35h-7.08l-1.46,4.35h-5.94l7.1-19.61h7.66l7.1,19.61h-5.96,0ZM164.92,404.29h4.11l-2.04-6.17-2.07,6.17Z"/>
    <path d="M178.78,403.18c0-6.1,4.19-10.12,10.5-10.12,4.98,0,8.69,2.89,9.36,7.5h-5.78c-.21-2.2-1.67-3.31-3.63-3.34-2.78-.03-4.64,2.2-4.64,5.83,0,3.9,1.83,6.31,4.56,6.31,2.04,0,3.55-1.3,3.82-3.71h5.78c-.69,4.85-4.43,7.87-9.41,7.87-6.33,0-10.55-4.11-10.55-10.34h0Z"/>
    <path d="M214.74,413.09l-5.33-7.55-1.7,1.8v5.75h-5.72v-19.61h5.72v6.84l6.41-6.84h6.65l-7.55,8,8.72,11.61h-7.21.01Z"/>
    <path d="M223.85,413.09v-19.61h5.73v19.61h-5.73Z"/>
    <path d="M247.23,393.48h5.67v19.61h-5.65l-7.71-11.26v11.26h-5.73v-19.61h5.7l7.71,11.29v-11.29h0Z"/>
    <path d="M256.29,403.18c0-6.1,4.19-10.12,10.5-10.12,4.8,0,8.75,2.94,9.36,6.97h-5.78c-.16-1.7-1.7-2.78-3.63-2.81-2.78-.03-4.64,2.2-4.64,5.83,0,3.9,1.83,6.31,4.56,6.31,2.28,0,3.71-1.17,4.03-2.97h-2.84v-3.92h8.46v10.63h-3.66v-2.54c-.87,1.62-2.62,2.97-5.96,2.97-6.25,0-10.39-4.11-10.39-10.34h0Z"/>
    <path d="M305.29,407.56c0,3.5-2.86,5.54-7.77,5.54h-9.65v-19.61h9.44c4.29,0,6.81,1.75,6.81,4.74,0,2.07-.95,3.58-2.68,4.32,2.46.74,3.84,2.49,3.84,5.01h0ZM293.6,397.91v3.13h3.18c1.14,0,1.83-.58,1.83-1.59,0-.95-.69-1.54-1.86-1.54h-3.15ZM296.86,408.67c1.67,0,2.62-.74,2.62-1.96s-.98-1.96-2.68-1.96h-3.21v3.92h3.27Z"/>
    <path d="M308.49,413.09v-19.61h9.33c4.75,0,7.55,2.46,7.55,6.28,0,2.23-.98,3.98-2.73,5.06,3.68,1.75,1.93,6.52,3.66,8.14v.13h-5.65c-2.41-2.57.37-7.05-4.19-7.05h-2.25v7.05h-5.72,0ZM314.22,401.62h3.53c1.11,0,1.83-.72,1.83-1.86s-.77-1.86-1.96-1.86h-3.39v3.71h0Z"/>
    <path d="M329.27,413.09v-19.61h15.19v4.43h-9.46v3.05h8.56v4.43h-8.56v3.29h9.54v4.43h-15.27v-.02h0Z"/>
    <path d="M362.87,413.09l-1.43-4.35h-7.08l-1.46,4.35h-5.94l7.1-19.61h7.66l7.1,19.61h-5.96,0ZM355.85,404.29h4.11l-2.04-6.17-2.07,6.17h0Z"/>
    <path d="M384.36,413.09l-5.33-7.55-1.7,1.8v5.75h-5.73v-19.61h5.73v6.84l6.41-6.84h6.65l-7.55,8,8.72,11.61h-7.21,0Z"/>
    <path d="M398.06,413.09v-15.19h-5.96v-4.43h17.65v4.43h-5.99v15.19h-5.7Z"/>
    <path d="M412.64,413.09v-19.61h5.72v7.21h7.18v-7.21h5.73v19.61h-5.73v-7.98h-7.18v7.98h-5.72Z"/>
    <path d="M435.51,413.09v-19.61h9.33c4.75,0,7.55,2.46,7.55,6.28,0,2.23-.98,3.98-2.73,5.06,3.68,1.75,1.93,6.52,3.66,8.14v.13h-5.65c-2.41-2.57.37-7.05-4.19-7.05h-2.25v7.05h-5.72,0ZM441.23,401.62h3.53c1.11,0,1.83-.72,1.83-1.86s-.77-1.86-1.96-1.86h-3.39v3.71h0Z"/>
    <path d="M455.14,403.18c0-6.1,4.21-10.12,10.58-10.12s10.42,4.03,10.42,10.12-4.13,10.34-10.42,10.34-10.58-4.11-10.58-10.34ZM470.36,403.05c0-3.6-1.86-5.83-4.64-5.83s-4.77,2.23-4.77,5.83c0,3.9,1.91,6.31,4.77,6.31s4.64-2.41,4.64-6.31Z"/>
    <path d="M479.63,404.32v-10.84h5.72v10.81c0,3.23,1.22,4.98,3.45,4.98s3.47-1.75,3.47-4.98v-10.81h5.72v10.84c0,5.86-3.39,9.17-9.2,9.12-5.8-.05-9.17-3.39-9.17-9.12h.01Z"/>
    <path d="M501.49,403.18c0-6.1,4.19-10.12,10.5-10.12,4.8,0,8.75,2.94,9.36,6.97h-5.78c-.16-1.7-1.7-2.78-3.63-2.81-2.78-.03-4.64,2.2-4.64,5.83,0,3.9,1.83,6.31,4.56,6.31,2.28,0,3.71-1.17,4.03-2.97h-2.84v-3.92h8.46v10.63h-3.66v-2.54c-.87,1.62-2.62,2.97-5.96,2.97-6.25,0-10.39-4.11-10.39-10.34h0Z"/>
    <path d="M525.39,413.09v-19.61h5.73v7.21h7.18v-7.21h5.72v19.61h-5.72v-7.98h-7.18v7.98h-5.73Z"/>
    <path d="M547.39,406.71h5.86c.05,1.99,1.43,2.89,3.45,2.89,1.35,0,2.23-.79,2.23-1.75,0-1.67-1.99-1.99-4.27-2.54-3.05-.74-6.65-1.88-6.65-6.6,0-3.42,3.21-5.65,8.08-5.65s7.95,2.44,8.06,6.2h-5.7c-.11-1.62-1.03-2.28-2.44-2.28s-2.23.66-2.2,1.67c.03,1.43,1.46,1.88,3.26,2.33,3.23.77,7.66,1.48,7.66,6.31,0,3.76-3.21,6.23-8.11,6.23-5.57,0-9.22-2.7-9.22-6.81h0Z"/>
    <path d="M568.09,416.27c1.7-.11,1.67-1.43,1.67-3.18h-2.04v-5.46h5.2v5.46c0,4.51-2.54,5.09-4.82,4.96v-1.78h-.01Z"/>
    <path d="M193.33,437.01h5.86c.05,1.99,1.43,2.89,3.45,2.89,1.35,0,2.23-.79,2.23-1.75,0-1.67-1.99-1.99-4.27-2.54-3.05-.74-6.65-1.88-6.65-6.6,0-3.42,3.21-5.65,8.08-5.65s7.95,2.44,8.06,6.2h-5.7c-.11-1.62-1.03-2.28-2.44-2.28s-2.23.66-2.2,1.67c.03,1.43,1.46,1.88,3.26,2.33,3.23.77,7.66,1.48,7.66,6.31,0,3.76-3.21,6.23-8.11,6.23-5.57,0-9.22-2.7-9.22-6.81h0Z"/>
    <path d="M214.05,443.39v-19.61h5.72v7.21h7.18v-7.21h5.73v19.61h-5.73v-7.98h-7.18v7.98h-5.72Z"/>
    <path d="M251.36,443.39l-1.43-4.35h-7.08l-1.46,4.35h-5.94l7.1-19.61h7.66l7.1,19.61h-5.96.01ZM244.34,434.59h4.11l-2.04-6.17-2.07,6.17Z"/>
    <path d="M260.1,443.39v-19.61h9.33c4.74,0,7.55,2.46,7.55,6.28s-2.81,6.28-7.55,6.28h-3.6v7.05h-5.73,0ZM265.83,431.92h3.52c1.11,0,1.83-.72,1.83-1.86s-.77-1.86-1.96-1.86h-3.39v3.71h0Z"/>
    <path d="M280.11,443.39v-19.61h5.73v19.61h-5.73Z"/>
    <path d="M303.49,423.78h5.67v19.61h-5.65l-7.71-11.26v11.26h-5.73v-19.61h5.7l7.71,11.29v-11.29h0Z"/>
    <path d="M312.55,433.48c0-6.1,4.19-10.12,10.5-10.12,4.8,0,8.75,2.94,9.36,6.97h-5.78c-.16-1.7-1.7-2.78-3.63-2.81-2.78-.03-4.64,2.2-4.64,5.83,0,3.9,1.83,6.31,4.56,6.31,2.28,0,3.71-1.17,4.03-2.97h-2.84v-3.92h8.46v10.63h-3.66v-2.54c-.88,1.62-2.62,2.97-5.96,2.97-6.25,0-10.39-4.11-10.39-10.34h0Z"/>
    <path d="M344.13,443.39v-19.61h5.72v7.21h7.18v-7.21h5.73v19.61h-5.73v-7.98h-7.18v7.98h-5.72Z"/>
    <path d="M366.87,434.62v-10.84h5.73v10.81c0,3.23,1.22,4.98,3.45,4.98s3.47-1.75,3.47-4.98v-10.81h5.73v10.84c0,5.86-3.39,9.17-9.2,9.12s-9.17-3.39-9.17-9.12h-.01Z"/>
    <path d="M405.56,423.78h7.63v19.61h-5.67v-11.77l-5.01,11.77h-2.46l-4.98-11.74v11.74h-5.72v-19.61h7.63l4.29,10.04,4.29-10.04h0Z"/>
    <path d="M431.88,443.39l-1.43-4.35h-7.08l-1.46,4.35h-5.94l7.1-19.61h7.66l7.1,19.61h-5.96,0ZM424.85,434.59h4.11l-2.04-6.17-2.07,6.17h0Z"/>
    <path d="M454.03,423.78h5.67v19.61h-5.65l-7.71-11.26v11.26h-5.73v-19.61h5.7l7.71,11.29v-11.29h0Z"/>
    <path d="M463.97,443.39v-19.61h5.72v19.61h-5.72Z"/>
    <path d="M478.57,443.39v-15.19h-5.96v-4.43h17.65v4.43h-5.99v15.19h-5.7Z"/>
    <path d="M498.87,443.39v-6.55l-7.05-13.07h6.02l3.9,8.27,3.87-8.27h5.99l-7.02,13.07v6.55h-5.71Z"/>
    <path d="M510.92,443.39v-5.46h5.19v5.46h-5.19,0Z"/>
  </g>
  <path d="M472.76,234.8h0c-2.01-63.48-53.06-117.45-117.92-117.46-64.86,0-115.91,53.98-117.92,117.46h0v.02h0c2.01,63.48,53.06,117.45,117.92,117.46,64.86,0,115.91-53.98,117.92-117.46h0v-.02h0ZM320.69,133.6c-7.24,7.6-11.9,12.83-16.97,21.13-7.3,11.97-12.39,27.24-15.14,41.09-.52,2.63-1.12,5.24-1.88,7.8-2.36,7.87-6.99,13.69-14.35,16.95-7.53,3.35-16.08,5.29-24.22,6.29.15-38.84,43.37-85.04,72.55-93.25h.01ZM248.14,242.78c8.14,1,16.68,2.94,24.22,6.29,7.36,3.26,11.99,9.08,14.35,16.95.76,2.56,1.36,5.17,1.88,7.8,2.75,13.85,7.83,29.12,15.14,41.09,5.07,8.31,9.73,13.54,16.97,21.13-29.18-8.21-72.4-54.41-72.55-93.25h-.01ZM334.52,336.03c-30.63-22.75-34.78-58.86-37.08-79.11-1.35-11.88-1.49-12.17-13.14-13.69-10.4-1.35-20.79-2.33-31.23-3.37-1.66-.16-3.15-.33-4.8-.45h-.05c-.05-.48-.08-.93-.03-1.67,1.29-.04,9.69.13,12.84.21,16.43.4,32.83,1.68,48.87,5.88,17.84,4.67,30.01,15.87,34.99,34.61,2.17,8.19,3.69,16.65,4.69,25.1,1.35,11.5,2.16,27.47,2.9,39.03-.4.07-11-1.39-17.95-6.55h0ZM349.57,166.09c-1,8.44-2.51,16.9-4.69,25.1-4.98,18.74-17.14,29.94-34.99,34.61-16.03,4.2-32.43,5.49-48.87,5.88-3.15.08-11.55.25-12.84.21-.05-.75-.02-1.19.03-1.66h.05c1.65-.13,3.14-.3,4.8-.46,10.44-1.04,20.83-2.02,31.23-3.37,11.66-1.51,11.8-1.81,13.14-13.69,2.3-20.25,6.45-56.36,37.08-79.11,6.94-5.16,17.55-6.61,17.95-6.55-.74,11.56-1.55,27.53-2.9,39.03h0ZM375.16,133.6c30.63,22.75,34.78,58.86,37.08,79.11,1.35,11.88,1.49,12.17,13.14,13.69,10.4,1.35,20.79,2.33,31.23,3.37,1.66.16,3.15.33,4.8.45h.05c.05.48.08.93.03,1.67-1.29.04-9.69-.13-12.84-.21-16.43-.4-32.83-1.68-48.87-5.88-17.84-4.67-30.01-15.87-34.99-34.61-2.17-8.19-3.69-16.65-4.69-25.1-1.35-11.5-2.16-27.47-2.9-39.03.4-.07,11,1.39,17.95,6.55h0ZM375.16,336.03c-6.94,5.16-17.55,6.61-17.95,6.55.74-11.56,1.55-27.53,2.9-39.03,1-8.44,2.51-16.9,4.69-25.1,4.98-18.74,17.14-29.94,34.99-34.61,16.03-4.2,32.43-5.49,48.87-5.88,3.15-.08,11.55-.25,12.84-.21.05.75.02,1.19-.03,1.66h-.05c-1.65.13-3.14.3-4.8.46-10.44,1.04-20.83,2.02-31.23,3.37-11.66,1.51-11.8,1.81-13.14,13.69-2.3,20.25-6.45,56.36-37.08,79.11h0ZM388.99,336.03c7.24-7.6,11.9-12.83,16.97-21.13,7.3-11.97,12.39-27.24,15.14-41.09.52-2.63,1.12-5.24,1.88-7.8,2.36-7.87,6.99-13.69,14.35-16.95,7.53-3.35,16.08-5.29,24.22-6.29-.15,38.84-43.37,85.04-72.55,93.25h-.01ZM437.32,220.57c-7.36-3.26-11.99-9.08-14.35-16.95-.76-2.56-1.36-5.17-1.88-7.8-2.75-13.85-7.83-29.12-15.14-41.09-5.07-8.31-9.73-13.54-16.97-21.13,29.18,8.21,72.4,54.41,72.55,93.25-8.14-1-16.68-2.94-24.22-6.29h.01Z"/>
</svg>